<?xml version="1.0" standalone="no"?>
<!DOCTYPE svg PUBLIC "-//W3C//DTD SVG 20010904//EN"
 "http://www.w3.org/TR/2001/REC-SVG-20010904/DTD/svg10.dtd">
<svg version="1.0" xmlns="http://www.w3.org/2000/svg"
 width="700.000000pt" height="700.000000pt" viewBox="0 0 700.000000 700.000000"
 preserveAspectRatio="xMidYMid meet">
<metadata>
Created by potrace 1.14, written by Peter Selinger 2001-2017
</metadata>
<g transform="translate(0.000000,700.000000) scale(0.100000,-0.100000)"
fill="#000000" stroke="none">
<path d="M3278 6995 c-1 -1 -41 -6 -88 -9 -96 -7 -96 -8 -325 -42 -16 -3 -37
-7 -45 -9 -8 -2 -26 -6 -40 -9 -140 -25 -484 -130 -597 -181 -29 -14 -56 -25
-60 -25 -8 0 -292 -141 -348 -172 -428 -241 -839 -614 -1138 -1033 -142 -198
-307 -505 -391 -725 -26 -69 -52 -134 -56 -145 -21 -49 -90 -294 -105 -367 -3
-16 -7 -38 -10 -50 -29 -135 -52 -287 -63 -423 -9 -119 -8 -510 1 -605 4 -41
10 -100 13 -130 15 -165 88 -491 155 -688 243 -716 709 -1331 1341 -1769 62
-43 122 -83 133 -89 11 -6 61 -35 110 -64 91 -53 367 -190 383 -190 4 0 27 -9
49 -20 107 -52 441 -149 629 -185 116 -21 134 -24 184 -31 25 -3 56 -7 70 -10
157 -25 682 -25 842 1 13 2 43 6 68 9 25 3 72 11 105 17 33 5 74 13 90 15 141
25 363 89 545 156 720 267 1357 795 1764 1463 63 104 198 366 221 430 10 28
22 55 27 61 24 32 168 504 168 549 0 11 -33 54 -73 96 -100 104 -387 406 -428
450 -19 20 -98 103 -176 185 -77 82 -158 167 -178 189 -21 22 -72 76 -114 120
-94 100 -327 348 -371 395 -42 45 -286 304 -325 345 -34 35 -129 136 -320 340
-153 163 -142 152 -316 336 -76 79 -167 176 -203 214 l-66 70 -226 -230 c-124
-126 -329 -334 -455 -462 l-229 -232 189 -193 c104 -106 238 -245 299 -308 61
-63 113 -112 116 -110 3 3 73 72 156 154 83 82 152 147 155 145 2 -2 382 -381
844 -841 l840 -838 -26 -62 c-243 -604 -716 -1115 -1302 -1408 -500 -250
-1076 -341 -1621 -254 -52 8 -104 17 -116 19 -66 10 -292 72 -349 95 -11 4
-54 20 -95 35 -167 61 -402 184 -560 293 -207 142 -446 368 -606 572 -149 189
-289 437 -384 675 -54 136 -131 412 -145 522 -2 15 -6 42 -9 58 -2 17 -7 55
-11 85 -3 30 -8 73 -11 95 -8 52 -7 374 0 445 8 69 25 199 31 231 3 13 8 40
11 59 19 110 86 341 137 470 89 228 210 444 361 643 101 133 113 147 220 257
251 257 500 433 815 579 413 190 910 278 1351 237 47 -4 99 -9 115 -10 154
-13 467 -93 652 -167 339 -134 651 -338 903 -589 135 -134 155 -157 255 -287
42 -54 79 -102 83 -108 18 -23 122 -196 161 -267 79 -146 199 -452 226 -575 2
-10 13 -60 24 -112 11 -51 28 -102 38 -113 10 -11 41 -44 68 -72 28 -29 113
-119 190 -201 77 -81 165 -174 195 -206 77 -81 281 -298 314 -333 14 -16 28
-27 30 -25 20 19 31 650 13 699 -3 8 -8 42 -12 75 -6 72 -10 100 -25 185 -6
36 -13 79 -16 95 -14 79 -69 287 -105 397 -70 212 -107 301 -209 503 -477 941
-1366 1624 -2393 1839 -61 13 -134 27 -160 31 -27 3 -58 8 -70 11 -12 2 -51 6
-87 10 -36 3 -76 8 -90 11 -27 5 -536 14 -542 8z"/>
<path d="M2953 4102 c-127 -125 -496 -488 -818 -807 -323 -319 -645 -637 -717
-707 l-129 -128 644 0 644 0 129 136 c153 161 221 233 369 388 60 64 112 116
116 116 7 0 32 -21 99 -83 25 -23 101 -94 170 -157 68 -63 134 -124 146 -135
18 -17 160 -148 258 -238 l29 -27 601 0 601 1 -190 186 c-104 102 -353 346
-553 542 -200 196 -423 414 -495 485 -73 71 -238 233 -368 360 -130 127 -252
246 -270 263 l-35 33 -231 -228z"/>
</g>
</svg>
